<?xml version="1.0" encoding="UTF-8" standalone="no"?>
<svg
   version="1.1"
   viewBox="0 0 106.13437 106.13437"
   id="svg14"
   sodipodi:docname="favicon.svg"
   width="106.13437"
   height="106.13437"
   inkscape:version="1.2 (dc2aedaf03, 2022-05-15)"
   xmlns:inkscape="http://www.inkscape.org/namespaces/inkscape"
   xmlns:sodipodi="http://sodipodi.sourceforge.net/DTD/sodipodi-0.dtd"
   xmlns="http://www.w3.org/2000/svg"
   xmlns:svg="http://www.w3.org/2000/svg">
  <sodipodi:namedview
     id="namedview16"
     pagecolor="#ffffff"
     bordercolor="#666666"
     borderopacity="1.0"
     inkscape:showpageshadow="2"
     inkscape:pageopacity="0.0"
     inkscape:pagecheckerboard="0"
     inkscape:deskcolor="#d1d1d1"
     showgrid="false"
     inkscape:zoom="2.9047947"
     inkscape:cx="-68.679554"
     inkscape:cy="47.163403"
     inkscape:window-width="2560"
     inkscape:window-height="1377"
     inkscape:window-x="-8"
     inkscape:window-y="-8"
     inkscape:window-maximized="1"
     inkscape:current-layer="svg14" />
  <defs
     id="defs7">
    <linearGradient
       id="linearGradient2583"
       x1="53.32"
       x2="53.32"
       y1="145.36"
       y2="67.888"
       gradientTransform="translate(-50.00868,-53.566218)"
       gradientUnits="userSpaceOnUse">
      <stop
         style="stop-color:#2b5359"
         offset="0"
         id="stop2" />
      <stop
         style="stop-color:#438a83"
         offset="1"
         id="stop4" />
    </linearGradient>
  </defs>
  <path
     d="m 27.49132,14.333782 h 52.416 c 3.0038,0 6.0209,1.0677 8.5409,2.8741 2.5199,1.8063 4.4161,4.7524 5.8164,7.6266 0.826,1.6952 1.4148,3.5884 1.4281,5.4741 l 0.048,6.8352 c 0.017,2.4886 -0.8894,4.9662 -2.0013,7.1927 -1.0327,2.0677 -2.4907,3.9697 -4.2238,5.4989 -1.6949,1.4955 -4.227,2.9737 -5.8503,3.4287 -2.1999,0.6166 -4.3724,0.6528 -4.3724,0.6528 5.9768,1.1555 10.689,4.1108 12.218,9.5433 l 6.1092,26.75 h 5.2055 v 1.5905 h -17.785 l -7.1214,-32.245 c -0.4498,-1.8825 -1.0936,-3.6435 -2.4581,-4.8801 -0.6129,-0.5554 -1.5579,-0.7802 -2.5641,-0.7864 l -2.4606,-0.015 c -0.2533,0 -0.7591,-0.03 -0.7591,-0.03 v -1.7007 h 7.9564 c 1.0137,0 2.3111,-0.6241 3.3352,-1.9167 1.7171,-2.1674 1.8392,-4.8754 1.9389,-7.9864 v -16.845 c -0.1681,-2.3963 -0.6183,-4.6494 -1.9882,-6.9768 -0.7698,-1.3079 -2.0065,-2.5304 -3.405,-2.5304 h -7.1144 v 74.214 h 1.8075 v 1.699 h -19.737 v -1.6628 h 4.9524 v -74.25 h -8.9649 v 74.25 h 4.6271 v 1.6448 h -19.05 v -1.681 h 1.7351 v -74.214 h -7.3021 c -1.3783,0 -2.3366,1.1074 -3.2789,2.4775 -1.2033,1.7494 -1.9988,4.9136 -1.9988,6.9574 v 17.713 c 0,2.3602 0.3601,4.5859 1.7563,6.9406 0.7338,1.2376 1.6308,2.1689 2.9792,2.1689 h 8.7842 v 1.7351 c 0,0 -0.4319,0.014 -3.3257,0 -1.2041,-0.01 -2.4549,0.5783 -3.3257,1.4099 -0.7055,0.6737 -1.0487,1.6877 -1.2652,2.6388 -2.4756,10.874 -7.2298,32.064 -7.2298,32.064 l -0.3962,1.8074 H 3.3087196 v -1.699 h 5.2055 l 6.3622004,-27.112 c 0.5022,-2.1402 1.6774,-4.1319 4.2837,-6.055 2.0571,-1.7141 4.7703,-2.6279 7.7901,-3.0907 0,0 -2.7617,0.021 -5.5818,-0.9987 -2.3218,-0.8396 -4.4929,-2.4958 -5.9318,-4.1026 -2.8194,-3.1484 -5.005,-7.3244 -4.9715,-11.585 0.05,-6.4128 0,0 0.055,-7.0258 0.018,-2.3336 0.9455,-4.5605 2.0341,-6.6246 0.8651,-1.6401 2.0103,-3.1529 3.3281,-4.4573 1.2867,-1.2734 2.7821,-2.3627 4.3849,-3.2041 1.1285,-0.5924 2.3617,-1.0031 3.6101,-1.2598 1.1832,-0.2433 2.407,-0.253 3.6149,-0.253 z"
     style="fill:url(#linearGradient2583)"
     id="path12" />
</svg>
