<svg version="1.1" viewBox="0 0 100 100" xmlns="http://www.w3.org/2000/svg">
  <circle cx="47.891" cy="49.333" r="23.363" style="fill-rule:evenodd"/>
  <path d="m17.842 73.565-0.051122-47.288c-0.0018-1.7069-2.2649-2.1617-2.8629-2.0449-2.5283 0.49383-4.025 2.7116-5.01 4.8055-1.6168 3.4371-1.742 7.0816-2.2689 10.684-0.59637 4.0772-0.84753 8.0718-1.003 12.321l3.7831 3.8853 0.05112 17.637c0.0043 1.4951 1.8249 2.6475 3.8853 2.6584 1.5252 0.0081 3.478-1.1162 3.4763-2.6584z"/>
  <path d="m75.968 25.357v16.359c0 3.072 4.1008 4.6813 5.6235 5.01 0 0-0.06472 0.72142-1.8404 27.606-0.11563 1.7506 2.6443 2.3624 4.8055 2.3516 2.1236-0.01061 4.9232-0.12956 4.8055-1.9427-1.7946-27.648-1.8404-28.117-1.8404-28.117s5.6227-1.5239 5.6235-3.7831c0.0057-17.184 0-17.484 0-17.484"/>
  <path d="m81.525 25.363 0.05705 9.1117"/>
  <path d="m87.179 25.372-0.0661 9.084"/>
  <path d="m31.956 49.018a15.327 15.327 0 0 1 4.5252-10.874 15.327 15.327 0 0 1 10.903-4.4531" style="fill-rule:evenodd"/>
</svg>
