<svg version="1.1" viewBox="0 0 100 100" xmlns="http://www.w3.org/2000/svg">
  <circle cx="61.797" cy="68.722" r="4.8039"/>
  <circle cx="72.987" cy="58.097" r="4.8039"/>
  <circle cx="84.178" cy="68.722" r="4.8039"/>
  <circle cx="72.987" cy="78.662" r="4.8039"/>
  <path d="m23.141 65.139v-7.5278h7.1209v7.5278h7.9347v6.7141h-7.9347v8.1383h-6.9175v-7.9347h-8.3417v-6.9175z"/>
  <path d="m27.209 44.183h46.795c11.079 0 23.194 9.5626 23.194 23.804 0 14.244-12.004 25.228-24.211 25.228-12.209 0-14.242-6.9175-21.363-6.9175h-4.0691c-8.1383 0-9.1555 6.9175-20.346 6.9175-11.22 0-24.618-6.9175-24.618-24.415 0-16.074 13.021-24.618 24.618-24.618z"/>
  <path d="m49.59 43.788v-4.4877c0-2.238-1.6277-4.0052-4.0691-4.0052h-9.1555c-3.2553 0-5.0864-1.8951-5.0864-5.0864 0-3.0518 2.0346-5.0864 5.0864-5.0864h26.449c3.0518 0 5.0864-2.0346 5.0864-5.0864s-2.0346-5.0864-5.0864-5.0864h-8.1383c-3.0518 0-5.0864-1.8951-5.0864-4.9469v-6.2432"/>
</svg>
