<svg version="1.1" viewBox="0 0 100 100" xmlns="http://www.w3.org/2000/svg">
  <rect x="17.626" y="27.48" width="64.846" height="44.003"/>
  <path d="m17.56 18.217h-11.242"/>
  <path d="m17.559 28.635h-11.242"/>
  <path d="m17.559 39.06h-11.242"/>
  <path d="m17.559 49.485h-11.242"/>
  <path d="m17.559 59.902h-11.242"/>
  <path d="m17.559 70.327h-11.242"/>
  <path d="m17.559 80.752h-11.242"/>
  <path d="m93.99 18.217h-11.447"/>
  <path d="m93.99 28.635h-11.447"/>
  <path d="m93.99 39.06h-11.447"/>
  <path d="m93.99 49.485h-11.447"/>
  <path d="m93.99 59.902h-11.447"/>
  <path d="m93.99 70.327h-11.447"/>
  <path d="m93.99 80.752h-11.447"/>
  <path d="m94.052 13.586v71.795"/>
  <path d="m82.471 13.586v71.795"/>
  <path d="m40.786 36.741 23.159 11.58-23.159 11.58z"/>
  <path d="m17.626 13.586v71.795"/>
  <path d="m6.046 13.586v71.795"/>
</svg>
