<svg version="1.1" viewBox="0 0 100 100" xmlns="http://www.w3.org/2000/svg">
  <circle cx="50.297" cy="54.499" r="20.201"/>
  <circle cx="81.695" cy="37.322" r=".89894"/>
  <path d="m70.505 24.695 16.619 0.0059c4.4773 0.0015 7.045 3.9129 7.0485 7.322l0.0495 48.028c0.0037 3.4662-3.8619 7.3822-7.328 7.3775l-73.132-0.09903c-3.4778-0.004419-7.3704-3.8997-7.3775-7.3775l-0.099024-48.177c-0.00711-3.4671 4.1993-6.9981 7.666-7.0394 16.612-0.19806 16.061 0.28493 16.612-0.26298 0.55058-0.54791-0.01593 0.02393 2.9549-8.5419 0.78934-2.2761 3.7306-3.8125 6.1397-3.8125h21.489c2.8951 0 5.6553 2.8395 6.6843 5.5455 2.6737 7.031 1.374 7.0304 2.6737 7.031z"/>
</svg>
