<svg class="contract" version="1.1" viewBox="0 0 24 24" xmlns="http://www.w3.org/2000/svg">
  <path d="m5.0073 5 3.1392-3m0 0h10.854v20h-14v-17l3.2019-0.013389 0.0070182-2.9241" style="fill:none;stroke-linecap:round;stroke-linejoin:round;stroke-width:2.2677"/>
  <path d="m8.4251 8.6951h7.1498" style="fill:none;stroke-linecap:round;stroke-width:2.1935"/>
  <path d="m8.4251 12.242h7.1498" style="fill:none;stroke-linecap:round;stroke-width:2.1935"/>
  <path d="m8.2793 16.974s0.60662 0.44226 0.83612 0.1485c0.22726-0.2909 0.076031-1.3177 0.35447-1.3391 0.66946-0.05131 1.133 2.2131 1.7712 2.4219 0.61768 0.20209 0.52386-2.2219 1.3939-2.2073 0.78531 0.01318 0.44675 1.9181 1.1906 2.0333 0.31634 0.04899 0.70762-0.97129 1.083-1.166 0.44472-0.23068 1.2168 0.1087 1.2168 0.1087" style="fill:none;stroke-linecap:round;stroke-width:1.3365"/>
</svg>
