<svg stroke-linecap="round" stroke-linejoin="round" version="1.2" viewBox="0 0 435.86 323.47"
     xmlns="http://www.w3.org/2000/svg">
    <path d="m181.36 134.91-0.9-0.4-0.2-1.4-3.1-2.2-0.7-3 0.1-4.4 0.5-1.9-0.9-1-0.5-2.1"/>
    <path d="m135.66 35.111-2.4 4.9-5.2-3.5-0.9-2.5 6.8-2z"/>
    <path d="m62.16 16.911-5.1 6.5 4.7-0.8h5.1l-1.3 4.9-4.3 5.4 4.9 0.3 0.3 0.7 4.2 7.1 3.2 1 2.9 7 1.4 2.4 5.9 1.1-0.6 4-2.4 1.8 1.9 3.2-4.4 3.2-6.5-0.1-8.4 1.8-2.2-1.3-3.3 2.9-4.5-0.7-3.6 2.4-2.5-1.2 7.3-6.5 4.4-1.4-7.6-1-1.3-2.5 5.1-1.9-2.5-3.3 1-4 7.1 0.6 0.8-3.6-3.1-3.7-0.1-0.1-5.7-1.1-1.1-1.6 1.8-2.7-1.5-1.7-2.6 2.9-0.1-5.9-2.2-3 1.9-6.2 3.8-4.8 3.6 0.4z"/>
    <path d="m202.26 160.01 3.1 2.2 4.1-0.4 4 0.4v1.2l2.8-0.8-0.5 1.9-7.6 0.5-0.1-1-6.6-1.3z"/>
    <path d="m211.46 127.31-3.2-0.2-2.7-0.6-6.2 1.6 4 3.6-2.5 1.1h-2.9l-3.1-3.3-0.9 1.4 1.6 3.8 2.9 3-1.9 1.4 3.2 2.9 2.8 1.9 0.4 3.6-5-1.7 1.8 3.3-3.3 0.6 2.5 5.7-3.5 0.1-4.6-2.8-2.4-5.1-1.3-4.3-2.3-2.9-3-3.7-0.5-1.8"/>
    <path d="m171.06 116.71-5-2.3-3.2-2.3-4.8-1.9-4.7-4.6 1-0.5-2.5-2.7-0.3-2.1-3.3-1-1.4 2.7-1.6-2.1v-2.2l0.1-0.1 1.1-0.5-4.1-1-3.9 2.3 0.4 3.1-0.5 1.8 1.9 3.2 5 3.2 2.9 5.3 6.1 5.1 4-0.1 1.4 1.4-1.4 1.3 4.8 2.3 4 1.9 4.7 3.4 0.6 1.1-0.8 2.3-3.1-3-4.6-1-1.9 4.1 3.9 2.4-0.4 3.3-2.1 0.4-2.5 5.5-2.2 0.5-0.1-2 0.9-3.4 1.1-1.4-2.3-3.7-1.8-3.2-2.2-0.8-1.8-2.7-3.4-1.2-2.4-2.6-3.8-0.4-4.3-2.8-4.9-4.2-3.7-3.6-1.9-6.3-2.6-0.7-4.2-2.1-2.3 0.8-2.9 3-2.1 0.4-4.5 3.6-10.2-1.7-7.4 2.1-0.6 3.8 0.4 3.7-4.9 4.2-6.6 1.4-0.5 2.1-3.2 3.5-2 5.2 2 3.7-3 2.8-1.2 4.2-4 1.3-3.7 4.9-6.8 0.1-5-0.1-3.4 2.2-2.1 2.4-2.6-0.5-1.9-2.2-1.4-3.6-4.9-1-2.2 1.6-2.8-0.9-2.7 0.7 0.9-5-0.3-3.9-2.4-0.6-1.1-2.4 0.5-4.2 2.2-2.3 0.5-2.6 1.2-3.8v-2.7l-0.9-2.3-0.2-2.2 0.5-4.5-2-2.7 7.4-4.6 6.2 1.1h6.9l5.4 1.1 4.3-0.4 8.3 0.3 2.7-3.8 1-12.6-5.1-6.6-3.7-3.2-7.6-2.4-0.4-4.6 6.5-1.3 8.3 1.6-1.5-7.1 4.7 2.7 11.4-4.8 1.5-5.1 4.2-1.3 3.9-1.2 2.5-1.7 4-9 6.5-2.6 4 0.2 0.8-1.3 4-0.3 1 1.3 3.1-3-1.3-2.3-0.4-3.4-2.1-3.4-0.4-6.1 0.6-1.7 1.3-1.8 4-0.3 1.6-1.7 3.6-1.7v3.1l-1.2 2 0.7 1.6 2.6 0.9-1 2.3-1.4-0.6-3.1 4.3 1.4 3 0.3 2.3 4.9 1.4 0.1 2.2 4.7-1.2 2.6-1.6 5.6 2.4s2.7806 0.42542 2.5745 1.3765l2.9255-1.2765 7.1-2.8 5.8-2 4.8 1 0.6 1.5h4.6l0.7-2.6 6.3-2-1.7-5.1-0.5-4.5 1.7-3.8 4.1-2 4.4 4.5 3.7-0.2 0.1-4.6-0.1-3.5-1.5 0.8-3.3-2.1-1-3.4 5.5-1.7 5.6-0.8 5.1 0.9 4.7-0.1 4.5-3.3-5.4-2.8-8 0.5-7.6 2.1-7.1 1.3-3.2-3.2-4.7-1.9 0.0693-3.5282 262.84 7e-3 0.058 225.15-11.967 0.97254-7.6 0.9"/>
    <path d="m46.26 45.611 0.7 4.4-3.9 5.5-8.8 3.6-6.8-0.9 4.3-6.4-2.1-6.2 6.7-4.8 3.7-2.8 4-0.3 4.9 3.8z"/>
    <path d="m415.16 228.21-10.6-1.9-6.2-1.5-6.3-0.8-3.3-7.9-2.8-1.1-4.1 1.1-5.1 3.1-7-2.1-6.1-5-5.5-1.8-4.4-6.1-5.2-8.5-2.8 1-3.7-2.1-1.7 2.5-3.3-0.3 1.5 2.8-0.3 1.5 2.4 4.8"/>
    <path d="m157.76 143.81-1.7 5.1 0.9 1.9-0.9 3.3-4.2-2.4-2.7-0.7-7.5-3.2 0.5-3.3 6.2 0.6 5.4-0.7z"/>
    <path d="m123.76 124.81 3.3 4.5-0.4 8.5-2.4-0.4-2.1 2.1-2-1.7-0.5-7.7-1.3-3.6 2.9 0.3z"/>
    <path d="m176.16 120.61-1.1-0.5-1.7-2.1-2.3-1.3"/>
    <path d="m384.46 221.91 1.4-2.1 0.7 0.5-0.2 2.7-0.6 1.1 1.3 5.1 3 4.4 3.3 2.3 4.1 0.9 3.4 1.1 2.9 3.7 1.7 2.1 2 0.9 0.2 1.4-1.7 3.8-0.7 1.8-2.2 2.1-1.7 4.4-2.5-0.4-1 1.6-0.7 3.2 1.1 4.3-0.5 0.8h-2.5l-3.3 2.4-0.3 3.1-1.2 1.4-3.5-0.1-2 1.6 0.2 2.6-2.6 1.8-3.1-0.6-3.6 2.2-2.5 0.3"/>
    <path d="m340.66 205.91 2.7 5.6 2.9 1.4 1.2 2.3 4 2.7 0.7 2.6-0.4 2.2 0.9 2.1 1.8 1.8 0.9 2.1 1 1.6 1.8 1.3 1.5-0.5 1.3 2.5 0.3 1.4-0.3-1.4 0.9-0.4 0.4 1.8 4.2-1 4.6 0.2 3.4 0.2 3.3-4.4 3.7-4.1 3-4 1.3 2.2m-70.2 60.2-0.9-2.8-1.8-1.9-0.5-2.6-3.1-2.3-3.3-5.4-1.9-5.2-4.1-4.4-2.5-1.1-4.1-6.1-0.9-4.4v-3.8l-3.6-7.2-2.8-2.5-3-1.3-2.1-3.7 0.2-1.4-1.8-3.4-1.7-1.4-2.5-4.8-3.8-5.1-3.1-4.4h-2.7l0.5-3.5 0.1-2.3 0.4-2.6-0.3-0.9-0.7-1.6-3.9-9.4 1.4-2.1-0.4-0.4 1.1-3 0.6-4.8 0.6-1.7h0.1l1.3-5.3 2.2-4.5v-0.2l-0.1-7.6-2.3-2.9 1.7-2.4-3.2 0.6-4.6-1.5-3.2 3.7-8 0.7-4.7-3.4-5.7-0.2-1 2.6-3.6 0.8-5.4-3.4-5.8 0.1-3.8-6.4-4.2-3.5 2-5-3.6-3.1 5.1-6.1-0.7-1.7-3.9 3.4-2-2.9-0.1-1.3"/>
    <path d="m152.46 1.0107 3.7 4.1 4.8 3.3-3.3 6.6-4.6 1.4-0.6 10-2.1 5.7-5.7-0.6-2.2 4.8-5.5 0.3-1.9-5.7-4.5-6.9-4.2-8.4-3.3-3.6-8.6 6.8-6.1 1.4-6.5-3-1.8-6.3-0.95295-9.9226z"/>
    <path d="m373.36 282.31-4 1.7-0.9 2.9v2.2l-5.4 2.7-8.8 3-4.7 4.5-2.5 0.4-1.7-0.4-3.2 2.7-3.5 1.2-4.7 0.3-1.4 0.4-1.1 1.7-1.5 0.5-0.8 1.6-2.8-0.2-1.7 0.9-4-0.3-1.6-3.8v-3.5l-1-1.9-1.3-4.7-1.8-2.6 1.1-0.4-0.7-2.9 0.6-1.2-0.4-2.8"/>
    <path d="m125.26 118.81-1.5 4.9-2.4-1.3-1.3-4.2 0.9-2.4 3.2-2.4z"/>
    <path d="m257.76 164.11 0.1 0.2 0.3 0.4-0.4-0.1h-0.3l-0.4 0.2-0.3-0.3v-0.3l0.3-0.1 0.2 0.1z"/>
    <path d="m256.06 164.61v0.1l-0.2 0.2-0.1 0.6-0.1 0.2h-0.3l-0.2 0.2-0.5 0.2-0.8 0.4-0.4-0.1-0.5 0.1-0.3 0.4-0.2-0.3-0.3 0.1h-0.2l-0.3-0.3-0.4 0.3h-0.5l-0.5-0.2-0.5-0.1-0.4-0.3-0.3-0.6-0.3-0.3-0.2-0.7-0.2-0.3 0.1-0.3 0.5 0.3 0.4-0.1 0.2-0.3 0.1-0.3 0.3-0.1 0.2 0.1 0.2-0.2h0.2l0.1 0.4 0.5 0.2 0.1 0.2h0.6l0.6-0.5 0.4 0.1 0.3-0.2 0.3 0.1 0.4 0.2 0.2-0.3h0.3l0.3 0.4v0.6l0.3-0.2 0.3 0.2 0.1-0.1z"/>
    <circle id="abuDhabi1" cx="374" cy="235.09" r="12"/>
    <circle id="abuDhabi2" cx="374" cy="235.09" r="8"/>
</svg>
