<svg stroke-linecap="round" stroke-linejoin="round" version="1.2" viewBox="0 0 460.36 323.5"
     xmlns="http://www.w3.org/2000/svg">
    <path d="m163.78 223.14-3.2 5.7-1.8 4.6-1.8 8.6-1.1 3.1 0.4 3.5 1.3 3.2 0.4 4.9 3 4.8 0.8 3.7 1.7 3.1 5.7 1.7 1.9 2.7 5.2-1.8 4.3-0.6 4.4-1.2 3.6-1.1 3.9-2.6 1.8-3.7 1.2-5.4 1.2-1.9 4-1.7 6.1-1.5 4.9 0.3 3.4-0.6 1.2 1.4-0.6 3.1-3.5 3.8-1.8 3.9 0.9 1.1-1.2 2.8-2.1 5-1.4-0.6-0.3 1.8-1.3 2.7 0.4 1-0.9 2.3 0.3 0.6-1 3.3-1.3 1.7-1.1 0.2-1.3 2.2 3.8 1 0.6 0.3 1.3-1.1 1.6-0.1 0.5 0.5 0.9-0.3 2.6 0.6 2.6-0.2 1.8-0.7 0.8-0.7 1.7 0.3 1.3 0.4 1.5-0.1 1.2-0.6 2.5 0.9 0.8 0.2 1.6 1.2 1.5 1.4 1.9 1 1.3 1.7-0.5 0.7-0.5 1.4 0.4 2.3-1.5 2.2-0.8 2.6-0.5 2.8 0.2 1.7-0.1 2.9-0.9 0.6-0.7 2.8 0.2 1.7-1.2 1.6 0.1 1.7 0.8 1.1-1.4 1.4-1.7-0.5-0.8-1.3-1.8-0.5-1.3 0.8-3.6-1.7-0.9 0.8-1.8-2-2.5-2.6-1.1-2.1-2.2-2.1-2.5-2.9-1.2-1.5-3.3-0.1-2-0.6-2.2-1.3-3-0.4-1.5-1.4-2.8-1.1-3.5-0.1-2.4-1.3-2.8-2.6-5.6-6.9-2.6-2.1-4.4-1.7-3.2 0.5-4.8 2.4-2.9 0.6-3.7-1.7-4.1-1.2-4.8-2.9-4.1-0.9-5.9-3-4.3-3.1-1.1-1.7-3.1-0.4-5.4-2-1.9-2.9-5.4-3.7-2.2-4-0.8-3.2 1.9-0.6-0.3-1.8 1.6-1.7 0.4-2.2-1.5-2.9v-2.5l-1.3-3.3-3.8-6.4-4.6-5-1.9-4-4.1-2.6-0.7-1.6 1.7-3.9-2.4-1.5-2.5-3.2-0.2-4.4-2.8-0.6-2.3-3.3-1.7-3.2 0.3-2-1.5-4.8-0.3-4.9 0.8-2.5-3.1-2.6-1.9 0.3-2.4-1.7-1.8 2.6-0.1 3-1 4.9 1 2.6 2.8 4.4 0.4 1.6 0.7 0.4 0.1 2.2 1-0.1v4.2l1.3 1.6 0.5 2.3 2.7 3.2 0.4 6 1 2.8 0.9 3-0.3 3.4 2.6 0.2 1.6 2.9 1.5 2.9-0.3 1.2-2.8 2.3h-1l-0.7-3.9-2.9-3.7-3.4-3.1-2.5-1.6 1.2-4.7-0.1-3.5-2.1-2-3.1-2.8-0.9 0.8-1-1.7-3-1.5-2.2-3.8 0.5-0.4 2.1 0.3 2.7-2.4 1-2.9-2.9-4.6-2.6-1.7-0.8-4-0.6-4.3-0.8-5.1-0.2-5.8"/>
    <path d="m378.18 91.036 3.4 0.9 4.7-0.2-3.3 2.6-2 0.4-5.5-2.7-0.6-2.1 2.5-1.9z"/>
    <path d="m392.58 75.036-2.4 0.1-5.8-1.9-3.5-3 1.9-0.5 5.9 1.6 4.2 2.6z"/>
    <path d="m84.676 78.736-3.1 0.9-6.3-2.8v-2.2l-2.9-2.2 0.3-1.8-4.3-1.1 0.6-3.4 1.5-1.4 4.1 1.3 2.4 1 4.1 0.6 0.2 2.2 0.4 2.9 3.2 2.6z"/>
    <path d="m423.78 65.236-5 5.4 3.9-2.1 2.9 1.4-2.4 2.1 3.8 1.7 2.8-1.5 4.3 1.9-2.8 4.6 3.8-1.1-0.3 3.3 0.5 3.9-3.6 5.6-2.4 0.2-2.9-1.2 2.5-5.1-1.2-0.8-7.3 5.4-3-0.2 4.4-3-4.4-1.5-5.5 0.4-9.6-0.2-0.2-1.8 3.8-2.3-1.7-1.6 5.4-3.8 8.2-9.9 4.2-3.5 5-2.1 2.1 0.2-1.5 1.7z"/>
    <path d="m63.776 43.836 1.5 0.8 5-0.5-7.2 6.9 0.3 5h-1.9l-0.7-2.8 0.5-2.9-0.8-1.9 1.3-2.7z"/>
    <path d="m89.976 75.736h-0.7l-5.4-6.1-1.6-2.7-7-2.6 1.3-5.5 3.6-3.7-4.1-2.7 3.1-4.9-2.1-4.4 2.5-3.2"/>
    <path d="m357.78 99.936 0.2 2.1-6.4 3-6 2.2-6 1.9-4 3.8-1.3 1.4-1.2 3.4 0.7 3.3 2.1 0.2 0.2-2.3 1.1 1.4-1 1.8-3.8 1-2.5-0.1-4.2 1.1-2.3 0.3-3.1 0.3-5 1.9 8.1-1.2 1.1 1.2-7.9 1.9h-3.3l0.4-0.8-2.1 1.8 1.4 0.3-2.5 4.6-5.3 4.9 0.1-1.7-1.1-0.3-1.2-1.6v3.5l1 1.1-0.6 2.4-2.4 2.5-4.5 5.1-0.4-0.2 2.9-4.4-2-2.4 1-5.4-1.9 2.8v4.1l-3.2-1 3 2-1.5 6.1 1.4 0.5v2.2l-1 6.4-4.6 4.7-6.1 1.9-4.4 3.8-2.8 0.4-3.4 2.4-1.3 2.1-6.9 4.2-3.8 3.1-3.5 3.8-1.9 4.5v4.5l0.6 5.5 1.5 4.5-0.5 2.8 1.3 7.4-1 4.4-0.6 2.5-2 3.9-1.8 0.8-2.6-0.8-0.4-2.8-1.8-1.5-2-5.5-1.6-4.9-0.4-2.5 2-4.3-0.8-3.5-3.1-5.4-1.9-1-6.1 3-0.9-0.4-2-3-3-1.6-6.4 0.9-4.6-0.8-4.3 0.5-2.5 1 0.6 1.7-0.7 2.6 0.8 1.3-1.2 0.8-1.8-0.9-2.3 1.2-3.9-0.2-3.3-3.4-4.9 0.8-3.6-1.5-3.5 0.5-5 1.5-6.1 4.7-6.1 2.8-3.7 3-1.9 2.9-1 4.5-0.4 3 0.6 2.2m-97.2-42.8 0.3-3.2-2.1-3.7-2.2-0.8 0.1-1.8-2.9-0.4-1.2-1.7-4.8-0.6-0.9-1.1 0.8-3.5-2.5-6.4-0.5-8.9 0.9-1.5-1.3-2.1-1.5-5.4 1.8-5.2-0.9-3.5 3.9-5.3 2.8-5.4 1.1-4.9 5.5-6 8-11.4 4.3-8.5 1.8-5.3 0.4-2.9 1.4-1.3 5.8 2.2-1 5.9 2.2-1.7 2.5-5.1 1.6-5.1"/>
    <path d="m79.576 39.936-0.6-2.2-2.5-2 3.3-5.2-1.6-4.9 2.7-5.6-4.1-0.4-7.1-0.1-3.8-1.8-3.3-6.1-3.3-1.1-5.7-2.1-6.8 0.5-6-2.7-2.7-2.5-6.3 1.2-3.5 4.1-2.9 0.4-6.6 1.2-6.2 2-6.4 1.3 3.2-3.5 8.4-5.8 6.8-1.8 0.4-1.4-10.971 3.2-5.5619 2.9313-7.2937 3.2058 0.11159-9.5578 191.78 0.17451 85.822-0.24009-3.2922 2.4863-5 4.6-4.9 6.9 6 1-1.5 5.5-0.8 4.6 7.3-1.2 7 2.6 3.3 2.3 1.7 2.8 4.9 1.7 3.6 2.5 7.6 0.4 4.8 0.6-3.6 5.2-1.7 6.1 0.1 6.9 4.4 5.9 4.7-2 5.6-6.4 2.3-9.6-1.7-3.2 9-2.9 7.5-4.2 4.8-4.2 1.7-4-0.4-5.1-3.2-4.5 8.9-6.2 2.047-8.0921 26.833-0.21181 2.1196 0.80394 7.7 0.5-2.6 4.9-2.3 7.4 3.8 1 1.6 3.5 8.2-3.3 7.5-6.6 4.2-2.7 1.1 5.3 2.6 7.5 2 7.2-3.4 3.8 4.8 3.4 2.9 3.4 6.9 1.6 2.4 1.9v5.2l3.4 0.8 1.1 2.3-2 6.9-4.3 2.3-4.2 2.2-8.8 2.2-7.9 5-8.6 1.1-10.1-1.4h-7.3l-5.3 0.4-5.7 4.5 2.5 2.3 7.6-0.6 3.3 3.1-6.1 4.2-0.6 6.7 0.1 4.8 5.6 3.1 8.6-0.9 7.2-7.1-1 4.6 2.5 2.3-7.4 4.1-12.4 3.8-5.8 2.5-7.2 4.6-3.7-0.5 1.5-5.3 10.4-5.3-8.1 0.2-5.9 0.8-2.2-3.6"/>
    <circle id="losAngeles" cx="62" cy="170" r="10"/>
    <circle id="montreal" cx="334" cy="85.09" r="10"/>
</svg>
