<svg version="1.1" viewBox="0 0 100 100" xmlns="http://www.w3.org/2000/svg">
  <path d="m52.194 74.007c0.0079 1.7548-0.55015 3.757-3.5058 5.3162-8.303 4.38-22.301 8.141-27.242 9.0806-2.0376 0.11426-3.6556-1.576-4.2876-3.4462-0.66526-1.9686-0.45088-3.0656 0.06341-6.2666 0.21976-2.8444-3.0455-3.1612-3.6265-4.2044-0.45453-0.8161 1.293-1.8666 1.0988-2.7614-0.18635-0.85901-3.0577-1.7329-2.8732-2.5239 0.44762-1.9194 2.033-3.1536 1.9238-4.9071-0.04673-0.75044-0.27135-1.4579-1.0775-1.9817-2.4742-1.6076-6.0039-3.1435-4.7847-4.8288 4.0842-5.645 7.5191-10.697 9.3392-15.661-1.0531-2.3813-3.0331-3.0834-3.6782-4.9426-0.76534-2.2057 1.4658-3.4373 2.1992-7.1504 1.6829-8.5207 5.8541-14.513 7.1687-15.953 8.5265-8.9672 27.552-10.384 33.995-10.23 12.072 0.07199 23.564 6.5874 30.087 15.776 2.4032 3.3852 3.7142 9.5421 4.0991 14.849 0.38374 5.291 0.07524 8.6451-0.42087 9.7491-1.2813 7.4472-8.9414 13.276-11.178 21.035-2.4088 7.1983-1.2794 14.529 0.4023 21.495 0.81832 3.3897 4.5978 9.3967 4.5978 9.3967h-40.231c-1.3418-4.8361-3.672-8.2085-6.8104-11.552" style="stroke-linecap:round"/>
  <circle cx="50.522" cy="34.09" r="18.125"/>
  <path d="m38.276 33.438a12.436 12.436 0 0 1 12.358-11.622" style="stroke-linecap:round"/>
  <path d="m64.323 47.036 11.867 11.541" style="stroke-linecap:round"/>
</svg>
