<svg width="210mm" height="297mm" version="1.1" viewBox="0 0 210 297" xmlns="http://www.w3.org/2000/svg">
  <path d="m57.26 41.644-1e-6 -26.027h121.17c5.4472 0 9.8325 4.6551 9.8325 10.437v232.46c0 5.7824-4.3853 10.437-9.8325 10.437h-144.89c-5.4472 0-9.8325-4.6551-9.8325-10.437v-206.46l23.714 0.02657c5.7824 0.0065 9.8325-4.9903 9.8325-10.437z" style="fill:none;stroke-linecap:round;stroke-linejoin:round;stroke-width:10"/>
  <path d="m23.497 52.308 33.944-36.84" style="fill:none;stroke-width:10"/>
  <path d="m71.71 42.774 76.51 0.05369" style="fill:none;stroke-linecap:round;stroke-width:10"/>
  <path d="m66.71 57.064 41.737-0.38191m11.712 0 44.906 0.02662" style="fill:none;stroke-linecap:round;stroke-width:10"/>
  <rect x="116.54" y="80.127" width="51.765" height="41.644" rx="9.8325" ry="10.437" style="fill-rule:evenodd;fill:#158f42;stroke-width:10"/>
  <rect x="47.811" y="80.127" width="48.769" height="48.596" rx="9.8325" ry="10.437" style="fill:none;stroke-width:10"/>
  <rect x="116.4" y="142.28" width="51.765" height="105.27" rx="9.8325" ry="10.437" style="fill:none;stroke-width:10"/>
  <rect x="46.415" y="149.93" width="51.765" height="98.483" rx="9.8325" ry="10.437" style="fill:none;stroke-width:10"/>
  <path d="m50.816 162.5 25.034 0.0537" style="fill:none;stroke-linecap:round;stroke-width:10"/>
  <path d="m49.949 94.828 25.034 0.0537" style="fill:none;stroke-linecap:round;stroke-width:10"/>
  <path d="m51.684 112.18 25.034 0.0537" style="fill:none;stroke-linecap:round;stroke-width:10"/>
  <path d="m51.684 192.57 25.034 0.0537" style="fill:none;stroke-linecap:round;stroke-width:10"/>
  <path d="m52.262 234.22 25.034 0.0537" style="fill:none;stroke-linecap:round;stroke-width:10"/>
  <path d="m51.105 219.18 18.671 0.0537" style="fill:none;stroke-linecap:round;stroke-width:10"/>
  <path d="m50.816 205.3 18.671 0.0537" style="fill:none;stroke-linecap:round;stroke-width:10"/>
  <path d="m50.238 175.8 18.671 0.0537" style="fill:none;stroke-linecap:round;stroke-width:10"/>
</svg>
