<svg version="1.1" viewBox="0 0 100 100" xmlns="http://www.w3.org/2000/svg">
  <rect x="27.095" y="26.072" width="43.863" height="63.801" ry="4.7033" style="fill-rule:evenodd"/>
  <path d="m40.898 25.868v-17.075c-0.0031-1.1976 0.54904-1.8692 1.8404-1.8404h12.372c1.0963 0.026286 1.8188 0.5694 1.7893 1.7893v17.126"/>
  <path d="m51.355 56.627 5.5026 3.0873 5.3208-9.4928-11.977-6.5625-3.5245 6.1432"/>
  <circle cx="44.253" cy="56.489" r="7.0491" style="fill-rule:evenodd"/>
  <path d="m59.284 32.173v16.339"/>
  <path d="m59.284 56.062v25.345"/>
  <path d="m38.39 32.1v20.243"/>
  <path d="m38.39 60.513v20.533"/>
  <path d="m49.09 32.389v12.797"/>
  <path d="m48.873 61.815v19.304"/>
  <path d="m42.15 90.474a3.5787 3.5787 0 0 1-1.7894 3.0993 3.5787 3.5787 0 0 1-3.5787 0 3.5787 3.5787 0 0 1-1.7894-3.0993" style="fill-rule:evenodd"/>
  <path d="m64.164 90.534a3.5787 3.5787 0 0 1-1.7894 3.0993 3.5787 3.5787 0 0 1-3.5787 0 3.5787 3.5787 0 0 1-1.7894-3.0993" style="fill-rule:evenodd"/>
</svg>
